<svg xmlns="http://www.w3.org/2000/svg" viewBox="0 0 94.744 91.753">
  <defs>
    <style>
      .cls-1 {
        fill: #fff;
      }
    </style>
  </defs>
  <path id="Path_21286" data-name="Path 21286" class="cls-1" d="M89.856,55.41A4.707,4.707,0,0,1,91.028,60.1,45.877,45.877,0,0,1,8.839,70.712a1.63,1.63,0,0,0-1.666-.679L1.99,71.514A1.552,1.552,0,0,1,.077,69.663L4.52,51.893l.864-3.517a1.536,1.536,0,0,1,2.53-.74l4.381,4.258L23.71,62.937a1.492,1.492,0,0,1-.617,2.53l-5.677,1.6A36.41,36.41,0,0,0,47.4,82.682,36.9,36.9,0,0,0,82.39,57.322a4.543,4.543,0,0,1,7.466-1.975Zm-3.27-33.443A45.905,45.905,0,0,0,3.78,31.654a4.454,4.454,0,0,0,1.172,4.689V36.4a4.55,4.55,0,0,0,7.466-1.975,36.8,36.8,0,0,1,64.974-9.873l-5.677,1.6a1.492,1.492,0,0,0-.617,2.53L82.513,39.737l4.381,4.258a1.514,1.514,0,0,0,2.53-.74l.864-3.517L94.73,21.966a1.536,1.536,0,0,0-1.913-1.851ZM46.6,42.514,44.01,46.4v.062h3.332V42.637a17.883,17.883,0,0,1,.123-1.913H47.4A4.637,4.637,0,0,1,46.6,42.514Zm25.36,3.394A24.558,24.558,0,1,1,47.4,21.349,24.543,24.543,0,0,1,71.962,45.907ZM38.087,50.473H30.867c.123-2.16,6.972-3.209,6.972-8.515,0-3.64-3.023-5.183-5.8-5.183a6.506,6.506,0,0,0-5.985,3.64l3.085,2.1s.926-1.789,2.53-1.789a1.7,1.7,0,0,1,1.851,1.666c0,2.468-7.343,3.579-7.343,9.811a10.428,10.428,0,0,0,.185,1.851H38.148l-.062-3.579Zm15.426-4.011H51.476V37.022h-5.06l-6.6,10.366v2.53h7.528v4.134h4.134V49.918h2.036V46.463Zm14.932,7.59v-7.96c0-3.455-1.913-4.566-4.381-4.566a4.129,4.129,0,0,0-3.7,1.975H60.3a8.2,8.2,0,0,0,.062-1.049v-5.43h-4.2V53.99H60.3v-5.43a5.873,5.873,0,0,1,.185-1.543,2.484,2.484,0,0,1,2.468-1.789c.926,0,1.357.494,1.357,1.6V53.99h4.134Z" transform="translate(-0.041)"/>
</svg>
