<svg id="_x34_33._Network_1_" xmlns="http://www.w3.org/2000/svg" viewBox="0 0 91.038 86.703">
  <defs>
    <style>
      .cls-1 {
        fill: #fff;
      }
    </style>
  </defs>
  <g id="Group_209" data-name="Group 209">
    <g id="Group_208" data-name="Group 208">
      <path id="Path_323" data-name="Path 323" class="cls-1" d="M82.368,43.351H73.7V21.676a8.7,8.7,0,0,0-8.67-8.67H43.351V8.67A8.7,8.7,0,0,0,34.681,0H8.67A8.7,8.7,0,0,0,0,8.67V26.011a8.7,8.7,0,0,0,8.67,8.67H34.681a8.7,8.7,0,0,0,8.67-8.67V21.676H65.027V43.351h-8.67a8.7,8.7,0,0,0-8.67,8.67V69.362a8.7,8.7,0,0,0,8.67,8.67H82.368a8.7,8.7,0,0,0,8.67-8.67V52.022A8.7,8.7,0,0,0,82.368,43.351ZM34.681,26.011H8.67V8.67H34.681ZM82.368,69.362H56.357V52.022H82.368ZM13.005,43.351H30.346V39.016H13.005ZM60.692,86.7H78.033V82.368H60.692Z"/>
    </g>
  </g>
</svg>
