<svg xmlns="http://www.w3.org/2000/svg" viewBox="0 0 111.162 72.096">
  <defs>
    <style>
      .cls-1 {
        fill: #fff;
      }
    </style>
  </defs>
  <path id="Path_329" data-name="Path 329" class="cls-1" d="M109.956,42.461c3.563-10.076-1.413-21.258-11.243-24.944A18.142,18.142,0,0,0,85.38,17.7,15.542,15.542,0,0,0,75.611,5.29,14.761,14.761,0,0,0,58.9,9.837,24.2,24.2,0,0,0,47.9,1.6C34.876-3.311,20.5,3.57,15.707,16.964c-.184.492-.307.983-.492,1.475a12.465,12.465,0,0,0-14.5,8.11A13.088,13.088,0,0,0,3.849,40.311,20.854,20.854,0,0,0,16.322,65.255,19.414,19.414,0,0,0,33.156,63.9a23.8,23.8,0,0,0,4.608,2.519A19.571,19.571,0,0,0,56.81,63.473a20.992,20.992,0,0,0,9.523,7.311c10.875,4.116,22.917-1.659,26.911-12.9a23.006,23.006,0,0,0,.737-2.765A19.022,19.022,0,0,0,109.956,42.461Z" transform="translate(0.055 -0.016)"/>
</svg>
