<svg id="_x37_7._Messages_1_" xmlns="http://www.w3.org/2000/svg" viewBox="0 0 89.598 80.505">
  <defs>
    <style>
      .cls-1 {
        fill: #fff;
      }
    </style>
  </defs>
  <g id="Group_213" data-name="Group 213">
    <g id="Group_212" data-name="Group 212">
      <path id="Path_328" data-name="Path 328" class="cls-1" d="M44.8,38.079a6.72,6.72,0,1,0-6.72-6.72A6.748,6.748,0,0,0,44.8,38.079ZM80.638,0H8.96A8.969,8.969,0,0,0,0,8.96v44.8a8.969,8.969,0,0,0,8.96,8.96H22.4v13.44c0,4.941,2.5,5.8,5.6,1.911l12.188-15.35H80.638a8.969,8.969,0,0,0,8.96-8.96V8.96A8.969,8.969,0,0,0,80.638,0Zm0,53.759H8.96V8.96H80.638Zm-17.92-15.68A6.72,6.72,0,1,0,56,31.359,6.748,6.748,0,0,0,62.718,38.079Zm-35.839,0a6.72,6.72,0,1,0-6.72-6.72A6.748,6.748,0,0,0,26.879,38.079Z"/>
    </g>
  </g>
</svg>
