<svg xmlns="http://www.w3.org/2000/svg" viewBox="0 0 83.187 89.041">
  <defs>
    <style>
      .cls-1 {
        fill: #fff;
      }
    </style>
  </defs>
  <path id="Path_21285" data-name="Path 21285" class="cls-1" d="M75.659,7.527A25.747,25.747,0,0,0,33.583,35.385l.129.257-33,33.069A2.616,2.616,0,0,0,0,70.319V86.725a2.306,2.306,0,0,0,2.316,2.316H12.8a2.253,2.253,0,0,0,2.252-2.316V73.15H28.823a2.406,2.406,0,0,0,1.608-.643,2.3,2.3,0,0,0,.708-1.608V60.6l13-13a26.228,26.228,0,0,0,13.575,3.8,25.215,25.215,0,0,0,17.95-7.463A25.783,25.783,0,0,0,75.659,7.527ZM73.021,24.383l-3.6,3.6a1.9,1.9,0,0,1-2.638,0L55.2,16.341a1.9,1.9,0,0,1,0-2.638l3.6-3.6a1.9,1.9,0,0,1,2.638,0L73.086,21.746A1.845,1.845,0,0,1,73.021,24.383Z"/>
</svg>
