<svg xmlns="http://www.w3.org/2000/svg" viewBox="0 0 79.053 79.053">
  <defs>
    <style>
      .cls-1 {
        fill: #fff;
      }
    </style>
  </defs>
  <g id="_x34_27._Network_1_" transform="translate(0 79.053) rotate(-90)">
    <g id="Group_207" data-name="Group 207">
      <g id="Group_206" data-name="Group 206">
        <path id="Path_321" data-name="Path 321" class="cls-1" d="M67.2,51.384A11.858,11.858,0,1,0,56.038,35.574H34.49L59.672,21.038a11.868,11.868,0,1,0-4.335-9.18,10.082,10.082,0,0,0,.255,2.423L22.122,33.6A11.856,11.856,0,1,0,11.858,51.384a11.9,11.9,0,0,0,10.264-5.929l33.47,19.317a10.082,10.082,0,0,0-.255,2.423,11.831,11.831,0,1,0,4.335-9.18L34.49,43.479H55.975A11.961,11.961,0,0,0,67.2,51.384Zm0-15.811a3.953,3.953,0,1,1-3.953,3.953A3.973,3.973,0,0,1,67.2,35.574Zm0-27.669a3.953,3.953,0,1,1-3.953,3.953A3.973,3.973,0,0,1,67.2,7.905ZM11.858,43.479a3.953,3.953,0,1,1,3.953-3.953A3.973,3.973,0,0,1,11.858,43.479ZM67.2,63.242A3.953,3.953,0,1,1,63.242,67.2,3.973,3.973,0,0,1,67.2,63.242Z"/>
      </g>
    </g>
  </g>
</svg>
