<svg xmlns="http://www.w3.org/2000/svg" viewBox="0 0 18.385 15.394">
  <defs>
    <style>
      .cls-1 {
        fill: #071129;
      }
    </style>
  </defs>
  <path id="Twitter_3_" class="cls-1" d="M126.248,24.894a6.819,6.819,0,0,1-2.4.932A3.779,3.779,0,0,0,121.1,24.6a3.83,3.83,0,0,0-3.775,3.873,5.4,5.4,0,0,0,.1.882,10.616,10.616,0,0,1-7.746-4.02,3.762,3.762,0,0,0-.49,1.961,4.083,4.083,0,0,0,1.667,3.236,3.485,3.485,0,0,1-1.716-.49v.049a3.8,3.8,0,0,0,3.04,3.775,3.161,3.161,0,0,1-.981.147,3.014,3.014,0,0,1-.686-.049,3.846,3.846,0,0,0,3.53,2.7,7.4,7.4,0,0,1-4.658,1.667,5.329,5.329,0,0,1-.882-.049,10.559,10.559,0,0,0,5.785,1.716c6.913,0,10.737-5.883,10.737-10.982v-.49a7.293,7.293,0,0,0,1.863-2.01,6.729,6.729,0,0,1-2.157.588A4.825,4.825,0,0,0,126.248,24.894Z" transform="translate(-108.5 -24.6)"/>
</svg>
